<svg xmlns="http://www.w3.org/2000/svg" viewBox="0 0 64 64">
  <!-- Caffeine + code: a mug with </> for coffee, steam rising, on the site's two accents
       (violet #9d8cff into ember #ff9a5c). Strokes are heavy so it still reads at 16px. -->
  <defs>
    <linearGradient id="g" x1="0" y1="0" x2="1" y2="1">
      <stop offset="0" stop-color="#9d8cff"/>
      <stop offset="1" stop-color="#ff9a5c"/>
    </linearGradient>
  </defs>
  <rect width="64" height="64" rx="15" fill="url(#g)"/>
  <g fill="none" stroke="#0b0914" stroke-linecap="round" stroke-linejoin="round">
    <g stroke-width="3.8" opacity=".8">
      <path d="M24 21.5c-3-3 3-5 0-8.3c-2-2 .4-3.9.8-5.2"/>
      <path d="M33 21.5c-3-3 3-5 0-8.3c-2-2 .4-3.9.8-5.2"/>
    </g>
    <g stroke-width="4.4">
      <path d="M12.5 27h32v14.5a10.5 10.5 0 0 1-10.5 10.5h-11a10.5 10.5 0 0 1-10.5-10.5z"/>
      <path d="M44.5 31h1.8a6.6 6.6 0 0 1 0 13.2h-2.3"/>
    </g>
    <path d="M24.4 35.6l-4 3.8 4 3.8M32.6 35.6l4 3.8-4 3.8" stroke-width="3.3"/>
  </g>
</svg>
